<svg xmlns="http://www.w3.org/2000/svg" viewBox="0 0 64 64" role="img" aria-labelledby="title description">
  <title id="title">Hades Agent</title>
  <desc id="description">A luminous Hades helmet and flame on a dark field</desc>
  <defs>
    <linearGradient id="field" x1="8" y1="5" x2="56" y2="59" gradientUnits="userSpaceOnUse">
      <stop stop-color="#161B2A" />
      <stop offset="1" stop-color="#070910" />
    </linearGradient>
    <linearGradient id="flame" x1="32" y1="8" x2="32" y2="42" gradientUnits="userSpaceOnUse">
      <stop stop-color="#FFE08A" />
      <stop offset="0.48" stop-color="#FF8A4C" />
      <stop offset="1" stop-color="#D6385A" />
    </linearGradient>
  </defs>
  <rect width="64" height="64" rx="14" fill="url(#field)" />
  <path d="M32 7c1.2 6.3 7.3 7.7 7.3 14.1 0 4.7-3.2 8.5-7.3 8.5s-7.3-3.8-7.3-8.5c0-3.9 2.1-7.1 5.5-10.3-.1 3.2 1.8 5 3.5 6.2.6-3.6-.5-6.6-1.7-10Z" fill="url(#flame)" />
  <path d="M18.5 29.7C18.5 20.5 24.5 14 32 14s13.5 6.5 13.5 15.7v8.1l-6.8 3.7-3.2 15h-7l-3.2-15-6.8-3.7v-8.1Z" fill="#111827" stroke="#F8E7B0" stroke-width="3" stroke-linejoin="round" />
  <path d="M20 31.5h8.7L32 36l3.3-4.5H44" fill="none" stroke="#F8E7B0" stroke-width="3" stroke-linecap="round" stroke-linejoin="round" />
  <path d="M32 36v20" stroke="#F8E7B0" stroke-width="3" stroke-linecap="round" />
  <path d="m20 39 7 3.5M44 39l-7 3.5" stroke="#FF8A4C" stroke-width="2.5" stroke-linecap="round" />
  <circle cx="14" cy="21" r="1.5" fill="#FF8A4C" />
  <circle cx="50" cy="18" r="1" fill="#FFE08A" />
  <circle cx="52" cy="31" r="1.5" fill="#D6385A" />
</svg>
